<?xml version="1.0" encoding="UTF-8" standalone="no"?>
<svg width="398px" height="99px" viewBox="0 0 398 99" version="1.1" xmlns="http://www.w3.org/2000/svg" xmlns:xlink="http://www.w3.org/1999/xlink">
    <!-- Generator: Sketch 41 (35326) - http://www.bohemiancoding.com/sketch -->
    <title>Line</title>
    <desc>Created with Sketch.</desc>
    <defs></defs>
    <g id="Page-1" stroke="none" stroke-width="1" fill="none" fill-rule="evenodd">
        <g id="1024" transform="translate(-190.000000, -604.000000)">
            <g id="Line" transform="translate(190.000000, 604.000000)">
                <g id="EPS-1">
                    <g id="Group" transform="translate(0.342892, 0.211786)">
                        <path d="M73.6990141,14.633329 C74.6661804,22.3585381 69.072466,26.6661148 62.1248304,27.5723521 C58.4152206,28.0566525 54.6034806,28.119016 50.8687568,28.4808367 C40.7975036,29.4573031 32.457439,32.3338901 25.9155333,40.1169681 C26.6723004,36.6178697 28.1808118,33.2204632 30.462833,30.1736407 C43.461815,12.8174834 64.7690506,22.0972856 73.6990141,14.633329" id="Fill-1" fill="#3949AB"></path>
                        <path d="M36.5260123,50.6906726 C48.1013121,35.6807316 74.0808592,49.448459 71.4829603,28.6791639 C62.5535548,36.1442442 41.2463192,26.8633183 28.2467791,44.2205993 C20.0400975,55.178036 21.8404888,70.6773339 32.6087937,79.0924745 C43.3776567,87.5081769 59.6135481,85.8642524 68.1215972,75.1411002 C76.4320833,63.3740616 67.9351959,51.7036583 75.6820132,42.9042236 C61.9630979,50.3507634 67.4329168,60.1086859 60.5394158,68.758111 C55.7275825,74.9989563 45.2344149,75.6018036 39.0357333,70.757676 C32.8376097,65.9129867 31.7141789,56.9303943 36.5260123,50.6906726" id="Fill-2" fill="#3949AB"></path>
                        <path d="M80.8321963,2.61859882 C68.2312188,1.17449157 58.9276661,0.452437951 49.6241135,0.452437951 L49.6241135,3.34065244 C58.2461403,3.34065244 67.1900793,3.96450677 80.5015838,5.4865958 C86.99783,6.23175514 93.119962,12.3287759 93.8652903,18.7983764 C96.7537998,43.8045374 96.7537998,55.2996311 93.8652903,80.3057921 C93.119962,86.7782808 86.99783,92.8724133 80.5015838,93.6175727 C67.1929794,95.1425499 58.2461403,95.763516 49.6212134,95.763516 C40.9962865,95.763516 32.0494475,95.1425499 18.7408431,93.6175727 C12.2416967,92.8724133 6.12246483,86.7782808 5.37423647,80.3057921 C2.48572699,55.3025193 2.48572699,43.8045374 5.37423647,18.7983764 C6.12246483,12.3287759 12.2416967,6.23175514 18.7408431,5.4865958 C32.0465474,3.96450677 40.9933864,3.34065244 49.6212134,3.34065244 L49.6241135,0.452437951 L49.6212134,0.452437951 C40.3147607,0.452437951 31.008308,1.17449157 18.4073304,2.61859882 C10.5480326,3.51972174 3.39636151,10.6391704 2.49152721,18.4691199 C-0.405682591,43.570592 -0.405682591,55.5364646 2.49152721,80.6379368 C3.39636151,88.464998 10.5480326,95.5873349 18.4073304,96.4855696 C31.0112081,97.9296769 40.3147607,98.6517305 49.6212134,98.6517305 C58.924766,98.6517305 68.2312188,97.9296769 80.8321963,96.4855696 C88.6914942,95.5873349 95.8431652,88.464998 96.7479995,80.6379368 C99.6481095,55.5364646 99.6481095,43.570592 96.7479995,18.4691199 C95.8431652,10.6391704 88.6914942,3.51972174 80.8321963,2.61859882" id="Fill-42" fill="#3E4D9F"></path>
                    </g>
                </g>
                <path d="M368.143342,73.7358389 C370.948331,75.7535214 374.2253,77.340236 377.716072,77.340236 C381.036071,77.340236 384.202104,76.6215081 387.08374,74.9534407 C389.878643,73.3357986 392.171984,71.1755807 393.97788,68.4969913 L396.548223,64.6841698 L396.548223,74.6051703 L396.182472,75.0079 C391.584361,80.059838 385.877567,82.7754059 379.027129,82.7754059 L378.184019,82.7754059 C371.701348,82.7754059 366.214408,80.2601943 361.67748,75.6573772 C357.149965,71.0666622 354.667025,65.5548459 354.667025,59.0701583 C354.667025,52.6446364 357.089454,47.1778667 361.639829,42.6604363 C366.373752,37.9601304 372.182741,35.7400746 378.840219,35.7400746 C385.911184,35.7400746 391.753118,38.6627223 396.467543,43.8867785 L397.367129,44.8851985 L368.143342,73.7358389 Z M186.83363,41.6304165 C190.486436,37.4585673 195.606952,35.6472922 201.638485,35.6472922 C207.181228,35.6472922 211.986419,37.5533667 215.89404,41.4966215 C219.776784,45.4129828 221.688237,50.1859011 221.688237,55.6970451 L221.688237,81.6505866 L215.879248,81.6505866 L215.879248,55.6970451 C215.879248,51.6784886 214.482805,48.2683968 211.683867,45.385417 C208.921908,42.5373987 205.611322,41.0804451 201.638485,41.0804451 C197.575554,41.0804451 194.175547,42.6221132 191.284499,45.457357 C188.401519,48.2858776 186.83363,51.6428547 186.83363,55.6970451 L186.83363,81.6505866 L181.024641,81.6505866 L181.024641,8.66171379 L186.83363,8.66171379 L186.83363,41.6304165 Z M159.99126,40.9876626 C158.692977,40.9876626 157.580933,41.4045114 156.591253,42.2456046 C155.690994,43.0120684 155.21229,43.9210677 155.21229,45.109759 C155.21229,46.439641 155.929001,47.510001 156.874979,48.3927791 C158.307056,49.7287121 159.94823,50.8474804 161.657982,51.7981645 C163.693146,52.9297072 165.696709,54.1143645 167.670017,55.3487747 C169.833597,56.7008438 171.671765,58.4287491 173.168387,60.4928228 C174.778633,62.7115339 175.544425,65.2327966 175.544425,67.9718963 C175.544425,72.1074394 173.946953,75.5995563 170.928161,78.4166471 C167.839446,81.2969375 164.116718,82.6812788 159.898477,82.6812788 C157.223249,82.6812788 154.667025,82.0990352 152.280902,80.8908461 C150.053451,79.7593035 148.170908,78.1638485 146.954651,75.9579117 L146.779843,75.6419135 L146.779843,65.9562309 C149.102767,71.2172656 152.81541,77.2474535 159.616768,77.2474535 C162.370659,77.2474535 164.81931,76.4628366 166.87397,74.610549 C168.549434,73.0998084 169.736108,71.2636568 169.736108,68.9555249 C169.736108,66.974821 169.231183,65.1568225 167.953071,63.6238948 C166.613104,62.0143208 165.007564,60.6911621 163.207718,59.6234914 C161.230376,58.4482469 159.249,57.278381 157.265607,56.1132215 C155.215652,54.9090665 153.385551,53.4070663 151.8459,51.5944465 C150.210778,49.6682018 149.403974,47.4017548 149.403974,44.8751135 C149.403974,42.1790433 150.526776,39.9388174 152.563284,38.1880526 C154.769893,36.2907184 157.492184,35.5524927 160.365751,35.5524927 C163.649444,35.5524927 166.408041,36.8736343 168.616667,39.2886678 L168.98578,39.6913975 L168.98578,47.6895149 C166.96877,44.7305611 163.899553,40.9876626 159.99126,40.9876626 Z M138.253269,29.2748849 C135.7589,29.2748849 134.131173,27.8959223 134.131173,25.3396981 C134.131173,22.783474 135.7589,21.4045114 138.253269,21.4045114 C140.747638,21.4045114 142.37671,22.783474 142.37671,25.3396981 C142.37671,27.8959223 140.747638,29.2748849 138.253269,29.2748849 Z M135.349447,81.651259 L141.158436,81.651259 L141.158436,36.7714391 L135.349447,36.7714391 L135.349447,81.651259 Z M353.895855,77.0591992 L353.895855,82.4943692 L352.489999,82.4943692 C347.762127,82.4943692 343.617171,80.9157226 340.184893,77.6569066 C336.666555,74.3140485 335.063032,70.0863953 335.063032,65.253639 L335.063032,8.56893132 L340.871348,8.56893132 L340.871348,65.253639 C340.871348,68.5460719 341.895317,71.3934178 344.247823,73.7170135 C346.539819,75.9800988 349.272868,77.0591992 352.489999,77.0591992 L353.895855,77.0591992 Z M305.359868,82.6812788 C298.873836,82.6812788 293.384879,80.2111137 288.888291,75.553165 C284.428682,70.9308502 282.029112,65.4136552 282.029112,58.9767035 C282.029112,52.5505093 284.452886,47.0850842 289.003261,42.5669815 C293.634316,37.9688708 299.255723,35.6472922 305.781423,35.6472922 C312.297711,35.6472922 317.907688,37.9608028 322.515884,42.5696709 C327.053484,47.1079437 329.44028,52.5948835 329.44028,59.0237671 C329.44028,65.4405486 327.110633,70.9678287 322.677245,75.5955222 C318.195448,80.2763304 312.687666,82.6812788 306.202978,82.6812788 L305.359868,82.6812788 Z M234.993109,43.6931455 C236.605372,41.7917773 238.563216,40.2117861 240.806132,38.9262783 C244.482469,36.8144687 248.457323,35.6472922 252.701785,35.6472922 C259.234208,35.6472922 264.862339,37.9487007 269.483982,42.5696709 C274.058561,47.1449222 276.40636,52.6910277 276.40636,59.1636131 C276.40636,65.6368709 274.058561,71.1829764 269.483982,75.7575554 C264.862339,80.3791979 259.234208,82.6812788 252.701785,82.6812788 C248.544055,82.6812788 244.645847,81.5053619 241.042794,79.4520456 C238.715837,78.1248529 236.686725,76.4870407 234.993109,74.5244899 L234.993109,81.6505866 L229.184792,81.6505866 L229.184792,8.56893132 L234.993109,8.56893132 L234.993109,43.6931455 Z M115.485931,60.1015228 L128.603893,60.1015228 L128.603893,65.5346758 L115.485931,65.5346758 L115.485931,81.6505866 L109.67627,81.6505866 L109.67627,36.8642216 C109.67627,32.0314654 111.279793,27.8044845 114.798131,24.460954 C118.231082,21.202138 122.37671,19.6241638 127.10391,19.6241638 L128.509093,19.6241638 L128.509093,25.0586614 L127.10391,25.0586614 C123.887451,25.0586614 121.15373,26.1384341 118.861734,28.4015195 C116.509228,30.7257875 115.485931,33.5724611 115.485931,36.8642216 L115.485931,60.1015228 Z M234.806199,59.2584126 C234.806199,64.2269809 236.651091,68.3900898 240.156654,71.896998 C243.674992,75.415336 247.857599,77.2474535 252.841631,77.2474535 C257.78734,77.2474535 261.925572,75.4449188 265.375332,71.9091001 C268.833832,68.3631963 270.598044,64.1671429 270.598044,59.2106767 C270.598044,54.2320234 268.800887,50.0245403 265.328268,46.4665344 C261.876492,42.9280264 257.748344,41.0804451 252.79524,41.0804451 C247.807846,41.0804451 243.653478,42.9703836 240.164722,46.517632 C236.669916,50.0695868 234.806199,54.2629509 234.806199,59.2584126 Z M323.629946,59.2106767 C323.629946,54.2320234 321.834135,50.0252126 318.361515,46.4665344 C314.909739,42.9286987 310.780919,41.0804451 305.828487,41.0804451 C300.841766,41.0804451 296.686725,42.9703836 293.197297,46.517632 C289.701819,50.0695868 287.839446,54.2629509 287.839446,59.2584126 C287.839446,64.2269809 289.682993,68.3900898 293.189902,71.896998 C296.707567,75.415336 300.891518,77.2474535 305.87555,77.2474535 C310.819915,77.2474535 314.958819,75.4455912 318.407907,71.9091001 C321.866407,68.3631963 323.629946,64.1678152 323.629946,59.2106767 Z M364.140922,69.8221669 L389.2016,44.9329344 C385.936061,42.4634417 382.242243,41.1745722 378.0435,41.1745722 C373.219484,41.1745722 369.215719,43.1357784 365.825798,46.5250277 C362.422429,49.9290685 360.475342,53.9482973 360.475342,58.7891216 C360.475342,62.9387837 361.693616,66.6030188 364.140922,69.8221669 L364.140922,69.8221669 Z" id="Fill-3" fill="#3B3D46"></path>
            </g>
        </g>
    </g>
</svg>