<svg viewBox="0 0 48 48" xmlns="http://www.w3.org/2000/svg" role="img" aria-label="Fishbole">
  <!-- Mono cream variant for dark backgrounds (matches tone="dark" in Logo.astro). -->
  <path
    fill-rule="evenodd"
    fill="#fbf5e9"
    d="M14 12.5 H20 A10.5 10.5 0 0 1 30.5 23 V25 A10.5 10.5 0 0 1 20 35.5 H14 A10.5 10.5 0 0 1 3.5 25 V23 A10.5 10.5 0 0 1 14 12.5 Z
       M15.5 20 A3 3 0 1 1 9.5 20 A3 3 0 1 1 15.5 20 Z"
  />
  <path
    fill="#fbf5e9"
    d="M29 24 C34 18.5 39.5 14 44.5 11.5 C42.8 20 42.8 28 44.5 36.5 C39.5 34 34 29.5 29 24 Z"
  />
</svg>
